PathFileType	4	(X/Y/Z)	Walk1_0-155.trc
DataRate	CameraRate	NumFrames	NumMarkers	Units	OrigDataRate	OrigDataStartFrame	OrigNumFrames
30	30	8	22	m	30	116	155
Frame#	Time	Hip			RHip			RKnee			RAnkle			RBigToe			RSmallToe			RHeel			LHip			LKnee			LAnkle			LBigToe			LSmallToe			LHeel			Neck			Head			Nose			RShoulder			RElbow			RWrist			LShoulder			LElbow			LWrist		
		X1	Y1	Z1	X2	Y2	Z2	X3	Y3	Z3	X4	Y4	Z4	X5	Y5	Z5	X6	Y6	Z6	X7	Y7	Z7	X8	Y8	Z8	X9	Y9	Z9	X10	Y10	Z10	X11	Y11	Z11	X12	Y12	Z12	X13	Y13	Z13	X14	Y14	Z14	X15	Y15	Z15	X16	Y16	Z16	X17	Y17	Z17	X18	Y18	Z18	X19	Y19	Z19	X20	Y20	Z20	X21	Y21	Z21	X22	Y22	Z22
117	3.9	0.9904250934113218	0.9061294110770299	0.41335593272448656	0.9773625743840382	0.9011131701765127	0.5295022758233974	0.9199733491739208	0.5301352106182395	0.4834706653482324	0.8633492456728924	0.11706808702118444	0.4449256993135359	0.0	0.0	0.0	0.0	0.0	0.0	0.0	0.0	0.0	1.006893763220432	0.9115715972451669	0.2962467830836786	1.2345212270404302	0.5935279855316205	0.32289656179024545	1.019704857791071	0.2005793777865358	0.329873084051907	0.0	0.0	0.0	0.0	0.0	0.0	0.0	0.0	0.0	0.8849788178399498	1.4693405354884586	0.38385582066038226	1.0341798615045434	1.7856183289652885	0.42286129570565967	1.0443936985431796	1.6811111708634363	0.4075229390715579	0.8894027557080919	1.4668543074734826	0.5738702247942069	0.9980600168954643	1.1952600613015665	0.6540501613850841	1.2870980101458187	0.9705646582809613	0.632353552389244	0.927858130439275	1.4791135830634963	0.23610677804485433	0.8567531601753713	1.1667518685403298	0.15256688148618483	0.9095220119274293	0.911542462097232	0.12889120162270287
118	3.933333333333333	1.0307453838915244	0.8936065819343646	0.4164248846702812	1.0080483345452025	0.8898453713822506	0.5246249184614278	0.9311155923722173	0.5245761272090861	0.47992855967361137	0.8536035221302368	0.11373391153967823	0.4412452917406276	0.0	0.0	0.0	0.0	0.0	0.0	0.0	0.0	0.0	1.0556385104037764	0.8983924581369231	0.30768170903997255	1.270879069493767	0.5845125895296241	0.32228151067699606	1.1455751493700448	0.14551744825712623	0.327326850121046	0.0	0.0	0.0	0.0	0.0	0.0	0.0	0.0	0.0	0.929401966424669	1.4671187082088535	0.38912391442475275	1.0783115991287853	1.7805110554646704	0.4171635469823961	1.1661368525859364	1.6682420533665143	0.37194853664485605	0.9363839376680835	1.4675675841358309	0.5738478960507837	1.0478050067097124	1.1967252197828346	0.6564818652920975	1.312858647548692	0.9968947584139177	0.6755931640239742	0.9661071100775631	1.4711954309160222	0.2436172942150023	0.8863644445098701	1.1651645052483497	0.15250857280224422	0.9452920164619166	0.8995045557539437	0.11628082785421338
119	3.966666666666667	1.0742113738200807	0.8892369004469036	0.4179988317138464	1.0513114231597673	0.8867931796512433	0.5260325760614608	0.9528223538101872	0.5234532746277816	0.4843372314185583	0.8598511190310112	0.1236123664661985	0.44625054238531037	0.0	0.0	0.0	0.0	0.0	0.0	0.0	0.0	0.0	1.0985900697256896	0.8930070863704287	0.30966356878115137	1.301479734561112	0.5621335358029705	0.3252450297450364	1.269681029035449	0.12210517484742198	0.3135489529181721	0.0	0.0	0.0	0.0	0.0	0.0	0.0	0.0	0.0	0.9731325807360002	1.4630405326149578	0.391884189262677	1.1219367738073054	1.7747267348563753	0.41613204047930336	1.1340781343682806	1.668532759337458	0.4021084169423642	0.977837833637677	1.464606775821234	0.5745125480372835	1.096056807321747	1.1973397450315106	0.6649464882106592	1.310361620635673	1.0002410508738449	0.6411745991954283	1.0063518107175364	1.4653999725243432	0.240436045892785	0.9257433356458609	1.1600952331563892	0.14697802601529225	0.9878929740036195	0.8912204795508871	0.09809725154390501
120	4.0	1.108753818899301	0.8793349066934883	0.411256820152879	1.0853471280373268	0.8779346964644326	0.5185088276348887	0.9759607491946329	0.5174002242965547	0.48334971119944536	0.8572927632803921	0.12373105777731074	0.44310293552899976	0.0	0.0	0.0	0.0	0.0	0.0	0.0	0.0	0.0	1.1328195556244525	0.882394637637916	0.30397328449690564	1.3352282095477546	0.5430973836068962	0.3277414252344164	1.3779729751553245	0.12677894114652907	0.29886893667224773	0.0	0.0	0.0	0.0	0.0	0.0	0.0	0.0	0.0	1.0174069603826035	1.4561906038588643	0.3876315224097912	1.1654629913358772	1.7698679071054595	0.41493505152875304	1.2582725087415483	1.6541628500713912	0.3673713514056002	1.025725006024329	1.458368139622975	0.570456607654808	1.1462585126624112	1.1927914764802572	0.6617698200130647	1.4424555872489027	1.0262627725533964	0.6562283763550683	1.0050060012869266	1.4551912927150235	0.20095902805046084	0.996707602488784	1.1524976814589758	0.17416241826422635	1.0264103509475053	0.8820530500753808	0.08482042923161492
121	4.033333333333333	1.1578375211812069	0.8613190612556363	0.4148676882925235	1.1358647545409994	0.8599390635399462	0.5169101588703896	1.0017964092327696	0.508503216576123	0.47947553205542476	0.8660015631347079	0.10999975669823112	0.4420951707121425	0.0	0.0	0.0	0.0	0.0	0.0	0.0	0.0	0.0	1.1795780179959134	0.8645817848195833	0.3130048016751849	1.3772277324541702	0.5149313389677486	0.3383759044293397	1.4755849432743329	0.13950833432624685	0.3060720151295365	0.0	0.0	0.0	0.0	0.0	0.0	0.0	0.0	0.0	1.0603171295790483	1.4463401586168578	0.38663118776400823	1.2061435512230287	1.7632439264051165	0.41616611926048097	1.301998471086829	1.643847887873885	0.370185844980337	1.0691514557834745	1.4504183071342807	0.5707759181894898	1.1940590779741682	1.1857653192467499	0.6595120209403728	1.4980069115208643	1.0339935575464938	0.6463727558659541	1.0961802033093042	1.4453151824902597	0.2398954617671031	1.0428709657385955	1.1402281524826836	0.18453041049692523	1.0321211761744775	0.8885730811963428	0.11318025895442221
122	4.066666666666666	1.2042472935223936	0.8506207542773002	0.4184465558358264	1.181489384078167	0.8533540429199452	0.5204761547440944	1.0365639170205474	0.4987736005370287	0.4806842250080329	0.8696215092855468	0.12870916950915848	0.4438053001468787	0.0	0.0	0.0	0.0	0.0	0.0	0.0	0.0	0.0	1.2272615312114519	0.8496321073507517	0.31643394137402814	1.4242380619832566	0.5114988425097128	0.3472773349756078	1.5444043556855713	0.12671266806263592	0.30724093770819216	0.0	0.0	0.0	0.0	0.0	0.0	0.0	0.0	0.0	1.1075040055616197	1.4400761458692826	0.37712238445252366	1.2519120480266428	1.7533126558642944	0.41339705982270114	1.343865262076134	1.636494886577371	0.36581402123723317	1.1144308762950053	1.44126781963132	0.564725685050043	1.2437700153747058	1.177519713296801	0.6537602824240806	1.5449609539570162	1.0287161204299602	0.6390773830041575	1.1501845834196591	1.445016544286029	0.2338199945868929	1.094726766624431	1.1312461790876844	0.1849292513516949	1.0737204287330946	0.8736842179276664	0.10820097368498308
123	4.1	1.2510699575596307	0.8420972159229391	0.41634227807080754	1.2263669797279109	0.8424216814572174	0.5169587465743817	1.0868115527659377	0.4920510895557539	0.47952922556551797	0.876857968379764	0.13597926101599242	0.44316385682261716	0.0	0.0	0.0	0.0	0.0	0.0	0.0	0.0	0.0	1.2759023035116777	0.8434402296659274	0.3157544072887497	1.4750378133107025	0.510176434609798	0.34292293436154025	1.5705701490998292	0.1042360504488782	0.3073191965304264	0.0	0.0	0.0	0.0	0.0	0.0	0.0	0.0	0.0	1.1504685734701436	1.4327529563568062	0.37029245895851665	1.2947086516049036	1.7445778003571968	0.4057041540683308	1.3858082716988798	1.6279582366757808	0.36041831123843476	1.1568940947455653	1.4360138749190803	0.5534942848499337	1.2880583128394099	1.1632290368854166	0.6424154923121914	1.5826666646168017	1.0196484077965613	0.6256256724450874	1.1956729488512121	1.4380170896291844	0.232742248189026	1.1472599118084388	1.123069090034909	0.18134568111651048	1.1530720868078852	0.847751196734506	0.06815665345696731
124	4.133333333333334	1.3056997375744086	0.8384581450829984	0.41565473058847985	1.281011736025491	0.840023074227797	0.5136678422076635	1.138557446314762	0.49241631714050765	0.48160668329990164	0.8928551756177243	0.15772503871176827	0.4490348100895525	0.0	0.0	0.0	0.0	0.0	0.0	0.0	0.0	0.0	1.3313005515157565	0.8383985052662264	0.31734909677312234	1.5223944836184964	0.5189797507081837	0.3452685704345535	1.595567977495549	0.10692885460056138	0.32346874199753023	0.0	0.0	0.0	0.0	0.0	0.0	0.0	0.0	0.0	1.1953662400169824	1.4195936740819874	0.3653672417114673	1.3349830024272105	1.741916695662637	0.39918959129514126	1.4248041323951928	1.6490048206383858	0.36670259715482384	1.1992523774843924	1.4254071936580033	0.5463418839015084	1.3261667780502633	1.156600555392123	0.6350841505895848	1.6133155371577186	1.0091851555706899	0.6216768556604672	1.2412917908527206	1.4254681518502796	0.23016246569328153	1.2119934287804883	1.1152630054829564	0.17054846023398798	1.1785438012680765	0.8580010118296556	0.09581145680883045
